<svg width="24" height="24" viewBox="0 0 24 24" fill="none" xmlns="http://www.w3.org/2000/svg">
<g clip-path="url(#clip0_2_39)">
<path d="M15.9657 7.87188V5.80792C15.9254 5.56828 15.9254 5.32751 15.9657 5.08787C16.0325 4.90912 16.1723 4.73804 16.3776 4.58389C16.6323 4.41138 17.0196 4.29112 17.4593 4.24793C18.1089 4.20874 18.7666 4.20874 19.4162 4.24793H23.8455V0.119929H16.7382C15.1386 0.0478605 13.5244 0.132278 11.999 0.367854C10.4735 0.60343 9.07046 0.984911 7.87981 1.48787C5.93243 2.61819 4.97564 4.05021 5.20176 5.49591V7.89591H0.0515442V12.0239H5.20176V24.0239H15.8627V12.0239H22.9699L23.8971 7.89591H15.8627L15.9657 7.87188Z" fill="white"/>
</g>
<defs>
<clipPath id="clip0_2_39">
<rect width="24" height="24" fill="white"/>
</clipPath>
</defs>
</svg>
