<svg width="24" height="24" viewBox="0 0 24 24" fill="none" xmlns="http://www.w3.org/2000/svg">
<g clip-path="url(#clip0_2_47)">
<path d="M24 2.83388C23.0997 3.32109 22.1451 3.63953 21.168 3.77855C22.1963 3.01654 22.9641 1.82041 23.328 0.41328C22.3638 1.12004 21.3087 1.61921 20.208 1.8893C19.7517 1.27563 19.1951 0.787466 18.5747 0.456793C17.9543 0.126121 17.2841 -0.0396717 16.608 -0.0295961C15.3031 -0.0295961 14.0517 0.607994 13.129 1.7429C12.2063 2.87781 11.688 4.41712 11.688 6.02212C11.6846 6.48873 11.7249 6.95429 11.808 7.40958C9.85018 7.2917 7.93444 6.66828 6.18538 5.57987C4.43631 4.49147 2.89308 2.96241 1.65601 1.09219C1.2246 1.98626 0.992787 3.0046 0.984009 4.04422C0.981554 5.04187 1.17964 6.02482 1.56068 6.90553C1.94172 7.78624 2.4939 8.53747 3.16802 9.09225C2.38422 9.0645 1.61786 8.80094 0.935999 8.3247C0.941863 9.71937 1.33919 11.0687 2.06078 12.1446C2.78236 13.2204 3.78393 13.9566 4.89602 14.2288C4.47336 14.3679 4.03753 14.4374 3.6 14.4354C3.28871 14.472 2.97529 14.472 2.664 14.4354C2.97979 15.6387 3.59406 16.69 4.42053 17.4419C5.24701 18.1937 6.24416 18.6082 7.272 18.6273C5.5268 20.3134 3.37119 21.2284 1.15199 21.2251H-0.0239868C2.22462 22.9997 4.84036 23.9424 7.51201 23.941C9.35618 23.9567 11.1845 23.5214 12.8908 22.6606C14.597 21.7998 16.1472 20.5305 17.4513 18.9265C18.7553 17.3225 19.7872 15.4157 20.4871 13.317C21.1869 11.2182 21.5408 8.96947 21.528 6.70112C21.528 6.44528 21.528 6.17953 21.528 5.90401C22.4927 5.06792 23.3296 4.02852 24 2.83388Z" fill="white"/>
</g>
<defs>
<clipPath id="clip0_2_47">
<rect width="24" height="24" fill="white"/>
</clipPath>
</defs>
</svg>
