<svg width="24" height="24" viewBox="0 0 24 24" fill="none" xmlns="http://www.w3.org/2000/svg">
<g clip-path="url(#clip0_2_43)">
<path d="M12 2.15999C15.216 2.15999 15.576 2.15999 16.8 2.15999C17.5619 2.16708 18.3169 2.30512 19.032 2.56802C19.5481 2.75918 20.0153 3.06246 20.4 3.45601C20.7935 3.84071 21.0968 4.30795 21.288 4.82402C21.5509 5.53915 21.6889 6.29412 21.696 7.05601C21.696 8.32801 21.696 8.71201 21.696 11.856C21.696 15 21.696 15.432 21.696 16.656C21.6889 17.4179 21.5509 18.1729 21.288 18.888C21.0968 19.4041 20.7935 19.8713 20.4 20.256C20.0153 20.6496 19.5481 20.9528 19.032 21.144C18.3169 21.4069 17.5619 21.5449 16.8 21.552C15.528 21.552 15.144 21.552 12 21.552C8.856 21.552 8.424 21.552 7.2 21.552C6.43811 21.5449 5.68314 21.4069 4.96801 21.144C4.45194 20.9528 3.98469 20.6496 3.59999 20.256C3.20645 19.8713 2.90317 19.4041 2.71201 18.888C2.44911 18.1729 2.31107 17.4179 2.30397 16.656C2.30397 15.384 2.30397 15 2.30397 11.856C2.30397 8.71201 2.30397 8.28001 2.30397 7.05601C2.31107 6.29412 2.44911 5.53915 2.71201 4.82402C2.90317 4.30795 3.20645 3.84071 3.59999 3.45601C3.98469 3.06246 4.45194 2.75918 4.96801 2.56802C5.68314 2.30512 6.43811 2.16708 7.2 2.15999C8.472 2.15999 8.856 2.15999 12 2.15999ZM12 0C8.736 0 8.328 0 7.056 0C6.06382 0.0190942 5.08201 0.205748 4.15202 0.552026C3.34678 0.854225 2.61761 1.32936 2.01599 1.94399C1.40135 2.54562 0.926216 3.27479 0.624017 4.08003C0.277739 5.01002 0.0910852 5.99182 0.071991 6.98401C0.071991 8.25601 0.071991 8.664 0.071991 11.928C0.071991 15.192 0.071991 15.6 0.071991 16.872C0.0910852 17.8642 0.277739 18.8461 0.624017 19.7761C0.926216 20.5813 1.40135 21.3104 2.01599 21.912C2.61761 22.5266 3.34678 23.0019 4.15202 23.3041C5.08201 23.6503 6.06382 23.8369 7.056 23.856C8.328 23.856 8.736 23.856 12 23.856C15.264 23.856 15.672 23.856 16.944 23.856C17.9362 23.8369 18.9181 23.6503 19.848 23.3041C20.6533 23.0019 21.3824 22.5266 21.984 21.912C22.5986 21.3104 23.0738 20.5813 23.376 19.7761C23.7223 18.8461 23.9089 17.8642 23.928 16.872C23.928 15.6 23.928 15.192 23.928 11.928C23.928 8.664 23.928 8.25601 23.928 6.98401C23.9089 5.99182 23.7223 5.01002 23.376 4.08003C23.0738 3.27479 22.5986 2.54562 21.984 1.94399C21.3824 1.32936 20.6533 0.854225 19.848 0.552026C18.9181 0.205748 17.9362 0.0190942 16.944 0C15.672 0 15.264 0 12 0Z" fill="white"/>
<path d="M12 5.85596C10.3641 5.85596 8.79529 6.50582 7.63856 7.66255C6.48184 8.81927 5.83197 10.3881 5.83197 12.024C5.83197 13.6598 6.48184 15.2287 7.63856 16.3854C8.79529 17.5421 10.3641 18.192 12 18.192C13.6358 18.192 15.2047 17.5421 16.3614 16.3854C17.5181 15.2287 18.168 13.6598 18.168 12.024C18.168 10.3881 17.5181 8.81927 16.3614 7.66255C15.2047 6.50582 13.6358 5.85596 12 5.85596ZM12 16.008C10.937 16.008 9.9176 15.5857 9.16595 14.8341C8.41431 14.0824 7.99203 13.0629 7.99203 12C7.99203 10.937 8.41431 9.91756 9.16595 9.16592C9.9176 8.41427 10.937 7.99199 12 7.99199C13.063 7.99199 14.0824 8.41427 14.8341 9.16592C15.5857 9.91756 16.008 10.937 16.008 12C16.008 13.0629 15.5857 14.0824 14.8341 14.8341C14.0824 15.5857 13.063 16.008 12 16.008Z" fill="white"/>
<path d="M18.408 7.0321C19.2033 7.0321 19.848 6.38739 19.848 5.5921C19.848 4.79681 19.2033 4.1521 18.408 4.1521C17.6127 4.1521 16.968 4.79681 16.968 5.5921C16.968 6.38739 17.6127 7.0321 18.408 7.0321Z" fill="white"/>
</g>
<defs>
<clipPath id="clip0_2_43">
<rect width="24" height="24" fill="white"/>
</clipPath>
</defs>
</svg>
